<svg xmlns="http://www.w3.org/2000/svg" width="2800" height="1080"><path d="M158,-264L727,-242L857,-244Z" fill="#dce9f7" stroke="#dce9f7" stroke-width="1.51"/><path d="M702,1322L243,1331L1134,1324Z" fill="#6b81ae" stroke="#6b81ae" stroke-width="1.51"/><path d="M857,-244L1038,-227L1317,-232Z" fill="#c3ddee" stroke="#c3ddee" stroke-width="1.51"/><path d="M857,-244L1317,-232L1730,-237Z" fill="#b7d6eb" stroke="#b7d6eb" stroke-width="1.51"/><path d="M1657,1304L1134,1324L1884,1304Z" fill="#386ba3" stroke="#386ba3" stroke-width="1.51"/><path d="M1884,1304L1134,1324L2242,1308Z" fill="#2e659f" stroke="#2e659f" stroke-width="1.51"/><path d="M857,-244L1730,-237L2523,-249Z" fill="#a6c7e4" stroke="#a6c7e4" stroke-width="1.51"/><path d="M158,-264L857,-244L2523,-249Z" fill="#bfdaed" stroke="#bfdaed" stroke-width="1.51"/><path d="M1730,-237L2067,-200L2523,-249Z" fill="#99b6dc" stroke="#99b6dc" stroke-width="1.51"/><path d="M2511,1259L2242,1308L2814,1278Z" fill="#0d4b90" stroke="#0d4b90" stroke-width="1.51"/><path d="M158,-264L2523,-249L2866,-252Z" fill="#a1c3e1" stroke="#a1c3e1" stroke-width="1.51"/><path d="M2523,-249L2728,-225L2866,-252Z" fill="#8d9cc8" stroke="#8d9cc8" stroke-width="1.51"/><path d="M2954,794L2875,868L2960,1011Z" fill="#1d5999" stroke="#1d5999" stroke-width="1.51"/><path d="M2875,868L2874,982L2960,1011Z" fill="#175598" stroke="#175598" stroke-width="1.51"/><path d="M2242,1308L1134,1324L2989,1322Z" fill="#1c5797" stroke="#1c5797" stroke-width="1.51"/><path d="M2814,1278L2242,1308L2989,1322Z" fill="#094388" stroke="#094388" stroke-width="1.51"/><path d="M2966,696L2954,794L2998,1181Z" fill="#1d5796" stroke="#1d5796" stroke-width="1.51"/><path d="M2954,794L2960,1011L2998,1181Z" fill="#144f91" stroke="#144f91" stroke-width="1.51"/><path d="M2877,1177L2989,1322L2998,1181Z" fill="#093e81" stroke="#093e81" stroke-width="1.51"/><path d="M2960,1011L2877,1177L2998,1181Z" fill="#0c478b" stroke="#0c478b" stroke-width="1.51"/><path d="M2782,61L2870,295L3006,228Z" fill="#6c85b3" stroke="#6c85b3" stroke-width="1.51"/><path d="M2870,295L2941,369L3006,228Z" fill="#607fad" stroke="#607fad" stroke-width="1.51"/><path d="M2941,369L2957,515L3006,228Z" fill="#577aa8" stroke="#577aa8" stroke-width="1.51"/><path d="M2957,515L2966,696L3006,228Z" fill="#4973a5" stroke="#4973a5" stroke-width="1.51"/><path d="M2966,696L2998,1181L3006,228Z" fill="#2f649d" stroke="#2f649d" stroke-width="1.51"/><path d="M2970,-49L2818,-17L3016,61Z" fill="#798ab5" stroke="#798ab5" stroke-width="1.51"/><path d="M2818,-17L2782,61L3016,61Z" fill="#788bb9" stroke="#788bb9" stroke-width="1.51"/><path d="M2782,61L3006,228L3016,61Z" fill="#7285b2" stroke="#7285b2" stroke-width="1.51"/><path d="M2978,-170L2970,-49L3016,61Z" fill="#7a89b2" stroke="#7a89b2" stroke-width="1.51"/><path d="M3006,228L2998,1181L3016,61Z" fill="#4771a3" stroke="#4771a3" stroke-width="1.51"/><path d="M2957,515L2846,516L2966,696Z" fill="#3e6fa6" stroke="#3e6fa6" stroke-width="1.51"/><path d="M2639,1234L2511,1259L2814,1278Z" fill="#09488f" stroke="#09488f" stroke-width="1.51"/><path d="M2877,1177L2814,1278L2989,1322Z" fill="#093e80" stroke="#093e80" stroke-width="1.51"/><path d="M2941,369L2872,366L2957,515Z" fill="#5379ab" stroke="#5379ab" stroke-width="1.51"/><path d="M2846,516L2852,739L2966,696Z" fill="#366ca5" stroke="#366ca5" stroke-width="1.51"/><path d="M2818,-17L2970,-49L2978,-170Z" fill="#7e8db7" stroke="#7e8db7" stroke-width="1.51"/><path d="M2872,366L2846,516L2957,515Z" fill="#4c77ab" stroke="#4c77ab" stroke-width="1.51"/><path d="M2874,982L2877,1177L2960,1011Z" fill="#114e92" stroke="#114e92" stroke-width="1.51"/><path d="M2852,739L2954,794L2966,696Z" fill="#2a649f" stroke="#2a649f" stroke-width="1.51"/><path d="M2866,-252L2818,-17L2978,-170Z" fill="#8391bb" stroke="#8391bb" stroke-width="1.51"/><path d="M2870,295L2872,366L2941,369Z" fill="#5c7fae" stroke="#5c7fae" stroke-width="1.51"/><path d="M2782,61L2716,128L2870,295Z" fill="#718bbb" stroke="#718bbb" stroke-width="1.51"/><path d="M2852,739L2875,868L2954,794Z" fill="#26619f" stroke="#26619f" stroke-width="1.51"/><path d="M2712,497L2707,719L2846,516Z" fill="#3f76b0" stroke="#3f76b0" stroke-width="1.51"/><path d="M2707,719L2655,805L2852,739Z" fill="#2b6caa" stroke="#2b6caa" stroke-width="1.51"/><path d="M2846,516L2707,719L2852,739Z" fill="#366faa" stroke="#366faa" stroke-width="1.51"/><path d="M2728,-225L2818,-17L2866,-252Z" fill="#8695c0" stroke="#8695c0" stroke-width="1.51"/><path d="M2716,128L2681,290L2870,295Z" fill="#6a89bb" stroke="#6a89bb" stroke-width="1.51"/><path d="M2870,295L2681,290L2872,366Z" fill="#6184b4" stroke="#6184b4" stroke-width="1.51"/><path d="M2712,497L2846,516L2872,366Z" fill="#4e7bb0" stroke="#4e7bb0" stroke-width="1.51"/><path d="M2717,962L2692,1175L2874,982Z" fill="#12559b" stroke="#12559b" stroke-width="1.51"/><path d="M2852,739L2655,805L2875,868Z" fill="#2666a5" stroke="#2666a5" stroke-width="1.51"/><path d="M2717,962L2874,982L2875,868Z" fill="#185a9e" stroke="#185a9e" stroke-width="1.51"/><path d="M2874,982L2692,1175L2877,1177Z" fill="#0d4d94" stroke="#0d4d94" stroke-width="1.51"/><path d="M2692,1175L2814,1278L2877,1177Z" fill="#09468c" stroke="#09468c" stroke-width="1.51"/><path d="M2652,359L2712,497L2872,366Z" fill="#5781b6" stroke="#5781b6" stroke-width="1.51"/><path d="M2655,805L2717,962L2875,868Z" fill="#1f62a4" stroke="#1f62a4" stroke-width="1.51"/><path d="M2681,290L2652,359L2872,366Z" fill="#6086b8" stroke="#6086b8" stroke-width="1.51"/><path d="M2728,-225L2624,-72L2818,-17Z" fill="#8497c5" stroke="#8497c5" stroke-width="1.51"/><path d="M2080,1286L1884,1304L2242,1308Z" fill="#1f5b9a" stroke="#1f5b9a" stroke-width="1.51"/><path d="M2067,-200L2226,-175L2523,-249Z" fill="#94aed7" stroke="#94aed7" stroke-width="1.51"/><path d="M2624,-72L2782,61L2818,-17Z" fill="#7e93c1" stroke="#7e93c1" stroke-width="1.51"/><path d="M2692,1175L2639,1234L2814,1278Z" fill="#09488f" stroke="#09488f" stroke-width="1.51"/><path d="M2624,-72L2716,128L2782,61Z" fill="#7b92c2" stroke="#7b92c2" stroke-width="1.51"/><path d="M2539,664L2707,719L2712,497Z" fill="#3b78b4" stroke="#3b78b4" stroke-width="1.51"/><path d="M2522,501L2539,664L2712,497Z" fill="#447fba" stroke="#447fba" stroke-width="1.51"/><path d="M2532,118L2681,290L2716,128Z" fill="#7291c3" stroke="#7291c3" stroke-width="1.51"/><path d="M2624,-72L2532,118L2716,128Z" fill="#7c95c7" stroke="#7c95c7" stroke-width="1.51"/><path d="M2536,1152L2692,1175L2717,962Z" fill="#0e559f" stroke="#0e559f" stroke-width="1.51"/><path d="M2504,1017L2536,1152L2717,962Z" fill="#135ca4" stroke="#135ca4" stroke-width="1.51"/><path d="M2523,-249L2624,-72L2728,-225Z" fill="#8c9ecc" stroke="#8c9ecc" stroke-width="1.51"/><path d="M2652,359L2522,501L2712,497Z" fill="#5284bc" stroke="#5284bc" stroke-width="1.51"/><path d="M2655,805L2550,813L2717,962Z" fill="#2268ac" stroke="#2268ac" stroke-width="1.51"/><path d="M2550,813L2504,1017L2717,962Z" fill="#1b64ab" stroke="#1b64ab" stroke-width="1.51"/><path d="M2523,-249L2520,-114L2624,-72Z" fill="#8aa0cd" stroke="#8aa0cd" stroke-width="1.51"/><path d="M2532,118L2522,293L2681,290Z" fill="#6e91c4" stroke="#6e91c4" stroke-width="1.51"/><path d="M2539,664L2655,805L2707,719Z" fill="#2f72b1" stroke="#2f72b1" stroke-width="1.51"/><path d="M2536,1152L2639,1234L2692,1175Z" fill="#094f99" stroke="#094f99" stroke-width="1.51"/><path d="M2429,1242L2242,1308L2511,1259Z" fill="#125196" stroke="#125196" stroke-width="1.51"/><path d="M2539,664L2550,813L2655,805Z" fill="#2c72b2" stroke="#2c72b2" stroke-width="1.51"/><path d="M2522,293L2652,359L2681,290Z" fill="#658cbf" stroke="#658cbf" stroke-width="1.51"/><path d="M1730,-237L1926,-195L2067,-200Z" fill="#9dbedf" stroke="#9dbedf" stroke-width="1.51"/><path d="M2487,416L2522,501L2652,359Z" fill="#5788be" stroke="#5788be" stroke-width="1.51"/><path d="M2522,293L2487,416L2652,359Z" fill="#618dc0" stroke="#618dc0" stroke-width="1.51"/><path d="M2520,-114L2532,118L2624,-72Z" fill="#839bcb" stroke="#839bcb" stroke-width="1.51"/><path d="M2536,1152L2511,1259L2639,1234Z" fill="#0c4f97" stroke="#0c4f97" stroke-width="1.51"/><path d="M2410,838L2385,1008L2504,1017Z" fill="#1c69ae" stroke="#1c69ae" stroke-width="1.51"/><path d="M2226,-175L2410,-162L2523,-249Z" fill="#91a9d4" stroke="#91a9d4" stroke-width="1.51"/><path d="M2410,-162L2520,-114L2523,-249Z" fill="#8ea4d0" stroke="#8ea4d0" stroke-width="1.51"/><path d="M2520,-114L2392,43L2532,118Z" fill="#829dcc" stroke="#829dcc" stroke-width="1.51"/><path d="M2393,284L2522,293L2532,118Z" fill="#7095c6" stroke="#7095c6" stroke-width="1.51"/><path d="M2429,1242L2511,1259L2536,1152Z" fill="#0e5199" stroke="#0e5199" stroke-width="1.51"/><path d="M2522,501L2424,508L2539,664Z" fill="#4583bd" stroke="#4583bd" stroke-width="1.51"/><path d="M2424,508L2382,661L2539,664Z" fill="#4081bb" stroke="#4081bb" stroke-width="1.51"/><path d="M2382,661L2410,838L2539,664Z" fill="#337ab8" stroke="#337ab8" stroke-width="1.51"/><path d="M2539,664L2410,838L2550,813Z" fill="#2d75b4" stroke="#2d75b4" stroke-width="1.51"/><path d="M2410,838L2504,1017L2550,813Z" fill="#226baf" stroke="#226baf" stroke-width="1.51"/><path d="M2343,-25L2392,43L2520,-114Z" fill="#86a2cf" stroke="#86a2cf" stroke-width="1.51"/><path d="M2392,43L2393,284L2532,118Z" fill="#799acb" stroke="#799acb" stroke-width="1.51"/><path d="M2504,1017L2385,1008L2536,1152Z" fill="#165ea7" stroke="#165ea7" stroke-width="1.51"/><path d="M2385,1008L2344,1187L2536,1152Z" fill="#135da5" stroke="#135da5" stroke-width="1.51"/><path d="M2393,284L2487,416L2522,293Z" fill="#6692c4" stroke="#6692c4" stroke-width="1.51"/><path d="M2344,1187L2429,1242L2536,1152Z" fill="#10559d" stroke="#10559d" stroke-width="1.51"/><path d="M2410,-162L2343,-25L2520,-114Z" fill="#8aa4d1" stroke="#8aa4d1" stroke-width="1.51"/><path d="M2487,416L2424,508L2522,501Z" fill="#5289bf" stroke="#5289bf" stroke-width="1.51"/><path d="M2393,284L2339,354L2487,416Z" fill="#6494c5" stroke="#6494c5" stroke-width="1.51"/><path d="M2339,354L2424,508L2487,416Z" fill="#598ec3" stroke="#598ec3" stroke-width="1.51"/><path d="M2276,1040L2344,1187L2385,1008Z" fill="#1862aa" stroke="#1862aa" stroke-width="1.51"/><path d="M2392,43L2207,232L2393,284Z" fill="#789dcd" stroke="#789dcd" stroke-width="1.51"/><path d="M2382,661L2277,700L2410,838Z" fill="#337dba" stroke="#337dba" stroke-width="1.51"/><path d="M2214,831L2385,1008L2410,838Z" fill="#2571b4" stroke="#2571b4" stroke-width="1.51"/><path d="M2173,592L2382,661L2424,508Z" fill="#4588c1" stroke="#4588c1" stroke-width="1.51"/><path d="M2339,354L2259,407L2424,508Z" fill="#5b92c5" stroke="#5b92c5" stroke-width="1.51"/><path d="M2344,1187L2242,1308L2429,1242Z" fill="#14559a" stroke="#14559a" stroke-width="1.51"/><path d="M2188,59L2207,232L2392,43Z" fill="#80a3d2" stroke="#80a3d2" stroke-width="1.51"/><path d="M2259,407L2173,592L2424,508Z" fill="#508fc5" stroke="#508fc5" stroke-width="1.51"/><path d="M2226,-175L2253,-40L2343,-25Z" fill="#8ba9d5" stroke="#8ba9d5" stroke-width="1.51"/><path d="M2173,592L2277,700L2382,661Z" fill="#3f86c0" stroke="#3f86c0" stroke-width="1.51"/><path d="M2214,831L2276,1040L2385,1008Z" fill="#1f6eb2" stroke="#1f6eb2" stroke-width="1.51"/><path d="M2226,-175L2343,-25L2410,-162Z" fill="#8da9d4" stroke="#8da9d4" stroke-width="1.51"/><path d="M2277,700L2214,831L2410,838Z" fill="#2f7bb9" stroke="#2f7bb9" stroke-width="1.51"/><path d="M2343,-25L2188,59L2392,43Z" fill="#84a4d2" stroke="#84a4d2" stroke-width="1.51"/><path d="M2207,232L2339,354L2393,284Z" fill="#6d9aca" stroke="#6d9aca" stroke-width="1.51"/><path d="M2207,232L2259,407L2339,354Z" fill="#699bca" stroke="#699bca" stroke-width="1.51"/><path d="M2253,-40L2188,59L2343,-25Z" fill="#87a7d4" stroke="#87a7d4" stroke-width="1.51"/><path d="M2276,1040L2229,1159L2344,1187Z" fill="#1761a8" stroke="#1761a8" stroke-width="1.51"/><path d="M2229,1159L2242,1308L2344,1187Z" fill="#165aa0" stroke="#165aa0" stroke-width="1.51"/><path d="M2207,232L2087,414L2259,407Z" fill="#689dcc" stroke="#689dcc" stroke-width="1.51"/><path d="M2087,414L2173,592L2259,407Z" fill="#5895c9" stroke="#5895c9" stroke-width="1.51"/><path d="M2214,831L2091,869L2276,1040Z" fill="#2775b7" stroke="#2775b7" stroke-width="1.51"/><path d="M2091,869L2049,1003L2276,1040Z" fill="#2473b6" stroke="#2473b6" stroke-width="1.51"/><path d="M2049,1003L2229,1159L2276,1040Z" fill="#1e69af" stroke="#1e69af" stroke-width="1.51"/><path d="M2124,734L2214,831L2277,700Z" fill="#3482be" stroke="#3482be" stroke-width="1.51"/><path d="M2173,592L2124,734L2277,700Z" fill="#3d88c1" stroke="#3d88c1" stroke-width="1.51"/><path d="M2049,1003L2064,1165L2229,1159Z" fill="#2069ae" stroke="#2069ae" stroke-width="1.51"/><path d="M2229,1159L2080,1286L2242,1308Z" fill="#195a9e" stroke="#195a9e" stroke-width="1.51"/><path d="M2226,-175L2033,-67L2253,-40Z" fill="#8faed8" stroke="#8faed8" stroke-width="1.51"/><path d="M2033,-67L2188,59L2253,-40Z" fill="#8aacd7" stroke="#8aacd7" stroke-width="1.51"/><path d="M2067,-200L2033,-67L2226,-175Z" fill="#94b3da" stroke="#94b3da" stroke-width="1.51"/><path d="M2064,1165L2080,1286L2229,1159Z" fill="#1d61a5" stroke="#1d61a5" stroke-width="1.51"/><path d="M2023,248L2087,414L2207,232Z" fill="#70a2cf" stroke="#70a2cf" stroke-width="1.51"/><path d="M2188,59L2051,53L2207,232Z" fill="#83a8d4" stroke="#83a8d4" stroke-width="1.51"/><path d="M2051,53L2023,248L2207,232Z" fill="#7da8d3" stroke="#7da8d3" stroke-width="1.51"/><path d="M2087,414L2021,524L2173,592Z" fill="#5496c9" stroke="#5496c9" stroke-width="1.51"/><path d="M2033,-67L2051,53L2188,59Z" fill="#8aaed7" stroke="#8aaed7" stroke-width="1.51"/><path d="M2124,734L2091,869L2214,831Z" fill="#317fbc" stroke="#317fbc" stroke-width="1.51"/><path d="M2021,524L2124,734L2173,592Z" fill="#478ec5" stroke="#478ec5" stroke-width="1.51"/><path d="M1953,130L2023,248L2051,53Z" fill="#83add6" stroke="#83add6" stroke-width="1.51"/><path d="M2023,248L1949,359L2087,414Z" fill="#6ea4cf" stroke="#6ea4cf" stroke-width="1.51"/><path d="M1916,698L1963,893L2091,869Z" fill="#3785c0" stroke="#3785c0" stroke-width="1.51"/><path d="M2021,524L1930,590L2124,734Z" fill="#4a92c7" stroke="#4a92c7" stroke-width="1.51"/><path d="M1930,590L1916,698L2124,734Z" fill="#4590c6" stroke="#4590c6" stroke-width="1.51"/><path d="M1916,698L2091,869L2124,734Z" fill="#3987c0" stroke="#3987c0" stroke-width="1.51"/><path d="M2049,1003L1945,1099L2064,1165Z" fill="#256eb0" stroke="#256eb0" stroke-width="1.51"/><path d="M1963,893L2049,1003L2091,869Z" fill="#2d7bbb" stroke="#2d7bbb" stroke-width="1.51"/><path d="M2064,1165L1884,1304L2080,1286Z" fill="#2261a2" stroke="#2261a2" stroke-width="1.51"/><path d="M1949,359L2021,524L2087,414Z" fill="#629ecd" stroke="#629ecd" stroke-width="1.51"/><path d="M1926,-195L2033,-67L2067,-200Z" fill="#97b8dc" stroke="#97b8dc" stroke-width="1.51"/><path d="M1945,1099L1884,1304L2064,1165Z" fill="#2568aa" stroke="#2568aa" stroke-width="1.51"/><path d="M1963,893L1926,974L2049,1003Z" fill="#2c7aba" stroke="#2c7aba" stroke-width="1.51"/><path d="M1926,974L1945,1099L2049,1003Z" fill="#2a75b5" stroke="#2a75b5" stroke-width="1.51"/><path d="M2033,-67L1889,-68L2051,53Z" fill="#90b4da" stroke="#90b4da" stroke-width="1.51"/><path d="M1889,-68L1953,130L2051,53Z" fill="#8cb3d9" stroke="#8cb3d9" stroke-width="1.51"/><path d="M1926,-195L1889,-68L2033,-67Z" fill="#96b9dc" stroke="#96b9dc" stroke-width="1.51"/><path d="M1949,359L1930,590L2021,524Z" fill="#5b9dcd" stroke="#5b9dcd" stroke-width="1.51"/><path d="M1953,130L1872,215L2023,248Z" fill="#80add5" stroke="#80add5" stroke-width="1.51"/><path d="M1872,215L1949,359L2023,248Z" fill="#77aad3" stroke="#77aad3" stroke-width="1.51"/><path d="M1475,1253L1134,1324L1657,1304Z" fill="#4071a8" stroke="#4071a8" stroke-width="1.51"/><path d="M1733,1272L1657,1304L1884,1304Z" fill="#2e67a1" stroke="#2e67a1" stroke-width="1.51"/><path d="M1733,1141L1884,1304L1945,1099Z" fill="#2a6dad" stroke="#2a6dad" stroke-width="1.51"/><path d="M1926,974L1800,1039L1945,1099Z" fill="#2e78b7" stroke="#2e78b7" stroke-width="1.51"/><path d="M1872,215L1827,257L1949,359Z" fill="#78add4" stroke="#78add4" stroke-width="1.51"/><path d="M1746,519L1930,590L1949,359Z" fill="#5da1ce" stroke="#5da1ce" stroke-width="1.51"/><path d="M1768,377L1746,519L1949,359Z" fill="#69a7d2" stroke="#69a7d2" stroke-width="1.51"/><path d="M1889,-68L1777,115L1953,130Z" fill="#8db6db" stroke="#8db6db" stroke-width="1.51"/><path d="M1780,789L1926,974L1963,893Z" fill="#3684bf" stroke="#3684bf" stroke-width="1.51"/><path d="M1916,698L1780,789L1963,893Z" fill="#3d8bc3" stroke="#3d8bc3" stroke-width="1.51"/><path d="M1800,1039L1733,1141L1945,1099Z" fill="#2e75b4" stroke="#2e75b4" stroke-width="1.51"/><path d="M1777,115L1872,215L1953,130Z" fill="#86b3d9" stroke="#86b3d9" stroke-width="1.51"/><path d="M1827,257L1768,377L1949,359Z" fill="#74acd3" stroke="#74acd3" stroke-width="1.51"/><path d="M1733,1141L1733,1272L1884,1304Z" fill="#2d6ba8" stroke="#2d6ba8" stroke-width="1.51"/><path d="M1782,-84L1889,-68L1926,-195Z" fill="#98bdde" stroke="#98bdde" stroke-width="1.51"/><path d="M1780,789L1800,1039L1926,974Z" fill="#3482be" stroke="#3482be" stroke-width="1.51"/><path d="M1766,709L1916,698L1930,590Z" fill="#4995c8" stroke="#4995c8" stroke-width="1.51"/><path d="M1746,519L1766,709L1930,590Z" fill="#519bcb" stroke="#519bcb" stroke-width="1.51"/><path d="M1782,-84L1777,115L1889,-68Z" fill="#93bbdd" stroke="#93bbdd" stroke-width="1.51"/><path d="M1730,-237L1782,-84L1926,-195Z" fill="#9dc1e1" stroke="#9dc1e1" stroke-width="1.51"/><path d="M1766,709L1780,789L1916,698Z" fill="#4392c7" stroke="#4392c7" stroke-width="1.51"/><path d="M1780,789L1672,973L1800,1039Z" fill="#3985c0" stroke="#3985c0" stroke-width="1.51"/><path d="M1777,115L1827,257L1872,215Z" fill="#83b2d8" stroke="#83b2d8" stroke-width="1.51"/><path d="M1317,1252L1134,1324L1475,1253Z" fill="#4876ab" stroke="#4876ab" stroke-width="1.51"/><path d="M1317,-232L1473,-165L1612,-177Z" fill="#accee7" stroke="#accee7" stroke-width="1.51"/><path d="M1317,-232L1612,-177L1730,-237Z" fill="#aacce6" stroke="#aacce6" stroke-width="1.51"/><path d="M1746,519L1648,559L1766,709Z" fill="#579fce" stroke="#579fce" stroke-width="1.51"/><path d="M1624,-68L1777,115L1782,-84Z" fill="#96bedf" stroke="#96bedf" stroke-width="1.51"/><path d="M1777,115L1590,248L1827,257Z" fill="#85b5da" stroke="#85b5da" stroke-width="1.51"/><path d="M1590,248L1768,377L1827,257Z" fill="#7cb2d7" stroke="#7cb2d7" stroke-width="1.51"/><path d="M1648,559L1617,655L1766,709Z" fill="#559dcc" stroke="#559dcc" stroke-width="1.51"/><path d="M1624,-68L1588,111L1777,115Z" fill="#95bedf" stroke="#95bedf" stroke-width="1.51"/><path d="M1588,878L1672,973L1780,789Z" fill="#418bc3" stroke="#418bc3" stroke-width="1.51"/><path d="M1730,-237L1612,-177L1782,-84Z" fill="#a1c5e2" stroke="#a1c5e2" stroke-width="1.51"/><path d="M1672,973L1733,1141L1800,1039Z" fill="#357cb9" stroke="#357cb9" stroke-width="1.51"/><path d="M1594,368L1746,519L1768,377Z" fill="#6dabd3" stroke="#6dabd3" stroke-width="1.51"/><path d="M1590,248L1594,368L1768,377Z" fill="#7cb3d7" stroke="#7cb3d7" stroke-width="1.51"/><path d="M1588,111L1590,248L1777,115Z" fill="#8dbadd" stroke="#8dbadd" stroke-width="1.51"/><path d="M1612,-177L1624,-68L1782,-84Z" fill="#9fc3e2" stroke="#9fc3e2" stroke-width="1.51"/><path d="M1766,709L1617,655L1780,789Z" fill="#4a97c9" stroke="#4a97c9" stroke-width="1.51"/><path d="M1617,655L1588,878L1780,789Z" fill="#4894c8" stroke="#4894c8" stroke-width="1.51"/><path d="M1594,368L1648,559L1746,519Z" fill="#67a9d3" stroke="#67a9d3" stroke-width="1.51"/><path d="M1568,1179L1657,1304L1733,1272Z" fill="#356ea9" stroke="#356ea9" stroke-width="1.51"/><path d="M1568,1179L1733,1272L1733,1141Z" fill="#3472af" stroke="#3472af" stroke-width="1.51"/><path d="M1672,973L1568,1179L1733,1141Z" fill="#397ab7" stroke="#397ab7" stroke-width="1.51"/><path d="M1526,714L1588,878L1617,655Z" fill="#4f9acb" stroke="#4f9acb" stroke-width="1.51"/><path d="M1038,-227L1131,-212L1317,-232Z" fill="#bedaec" stroke="#bedaec" stroke-width="1.51"/><path d="M1594,368L1449,548L1648,559Z" fill="#6aabd5" stroke="#6aabd5" stroke-width="1.51"/><path d="M1513,1136L1568,1179L1672,973Z" fill="#3d7db9" stroke="#3d7db9" stroke-width="1.51"/><path d="M1588,878L1468,1042L1672,973Z" fill="#4288c2" stroke="#4288c2" stroke-width="1.51"/><path d="M1468,1042L1513,1136L1672,973Z" fill="#4082bc" stroke="#4082bc" stroke-width="1.51"/><path d="M1568,1179L1475,1253L1657,1304Z" fill="#3a71ab" stroke="#3a71ab" stroke-width="1.51"/><path d="M1494,360L1449,548L1594,368Z" fill="#75b1d7" stroke="#75b1d7" stroke-width="1.51"/><path d="M1447,97L1588,111L1624,-68Z" fill="#9ac2e1" stroke="#9ac2e1" stroke-width="1.51"/><path d="M1449,548L1617,655L1648,559Z" fill="#5fa4d0" stroke="#5fa4d0" stroke-width="1.51"/><path d="M1526,714L1486,843L1588,878Z" fill="#4d96c9" stroke="#4d96c9" stroke-width="1.51"/><path d="M1449,548L1526,714L1617,655Z" fill="#5ca2cf" stroke="#5ca2cf" stroke-width="1.51"/><path d="M1443,-117L1447,97L1624,-68Z" fill="#a0c7e4" stroke="#a0c7e4" stroke-width="1.51"/><path d="M1612,-177L1473,-165L1624,-68Z" fill="#a4c8e4" stroke="#a4c8e4" stroke-width="1.51"/><path d="M1473,-165L1443,-117L1624,-68Z" fill="#a6c9e5" stroke="#a6c9e5" stroke-width="1.51"/><path d="M1588,111L1433,223L1590,248Z" fill="#8ebdde" stroke="#8ebdde" stroke-width="1.51"/><path d="M1590,248L1494,360L1594,368Z" fill="#80b7d9" stroke="#80b7d9" stroke-width="1.51"/><path d="M1486,843L1468,1042L1588,878Z" fill="#488ec5" stroke="#488ec5" stroke-width="1.51"/><path d="M1447,97L1433,223L1588,111Z" fill="#96c1e1" stroke="#96c1e1" stroke-width="1.51"/><path d="M1433,223L1494,360L1590,248Z" fill="#87bbdc" stroke="#87bbdc" stroke-width="1.51"/><path d="M1443,-117L1372,-70L1447,97Z" fill="#a3cae5" stroke="#a3cae5" stroke-width="1.51"/><path d="M1513,1136L1475,1253L1568,1179Z" fill="#3e77b3" stroke="#3e77b3" stroke-width="1.51"/><path d="M843,1290L702,1322L1134,1324Z" fill="#617fac" stroke="#617fac" stroke-width="1.51"/><path d="M1351,949L1468,1042L1486,843Z" fill="#4a8ec6" stroke="#4a8ec6" stroke-width="1.51"/><path d="M1360,403L1449,548L1494,360Z" fill="#77b4d9" stroke="#77b4d9" stroke-width="1.51"/><path d="M1325,693L1486,843L1526,714Z" fill="#569ecd" stroke="#569ecd" stroke-width="1.51"/><path d="M1449,548L1325,693L1526,714Z" fill="#5fa5d1" stroke="#5fa5d1" stroke-width="1.51"/><path d="M1325,693L1348,853L1486,843Z" fill="#569ccc" stroke="#569ccc" stroke-width="1.51"/><path d="M1305,1161L1475,1253L1513,1136Z" fill="#427bb5" stroke="#427bb5" stroke-width="1.51"/><path d="M1468,1042L1305,1161L1513,1136Z" fill="#4581bb" stroke="#4581bb" stroke-width="1.51"/><path d="M1360,403L1329,499L1449,548Z" fill="#74b2d8" stroke="#74b2d8" stroke-width="1.51"/><path d="M1348,853L1351,949L1486,843Z" fill="#5095c9" stroke="#5095c9" stroke-width="1.51"/><path d="M1433,223L1315,292L1494,360Z" fill="#89bddd" stroke="#89bddd" stroke-width="1.51"/><path d="M1315,292L1360,403L1494,360Z" fill="#84bbdb" stroke="#84bbdb" stroke-width="1.51"/><path d="M1305,1161L1317,1252L1475,1253Z" fill="#4679b2" stroke="#4679b2" stroke-width="1.51"/><path d="M1317,-232L1443,-117L1473,-165Z" fill="#adcfe9" stroke="#adcfe9" stroke-width="1.51"/><path d="M1372,-70L1317,108L1447,97Z" fill="#a1c8e5" stroke="#a1c8e5" stroke-width="1.51"/><path d="M1317,108L1433,223L1447,97Z" fill="#99c4e2" stroke="#99c4e2" stroke-width="1.51"/><path d="M1351,949L1305,1161L1468,1042Z" fill="#4a88c0" stroke="#4a88c0" stroke-width="1.51"/><path d="M1317,-232L1372,-70L1443,-117Z" fill="#acd0e8" stroke="#acd0e8" stroke-width="1.51"/><path d="M1329,499L1325,693L1449,548Z" fill="#6aacd5" stroke="#6aacd5" stroke-width="1.51"/><path d="M1317,108L1315,292L1433,223Z" fill="#96c2e1" stroke="#96c2e1" stroke-width="1.51"/><path d="M1195,227L1315,292L1317,108Z" fill="#99c5e1" stroke="#99c5e1" stroke-width="1.51"/><path d="M1189,657L1325,693L1329,499Z" fill="#6dadd5" stroke="#6dadd5" stroke-width="1.51"/><path d="M1186,956L1305,1161L1351,949Z" fill="#538dc3" stroke="#538dc3" stroke-width="1.51"/><path d="M1317,-232L1218,-84L1372,-70Z" fill="#b0d2e9" stroke="#b0d2e9" stroke-width="1.51"/><path d="M1218,-84L1317,108L1372,-70Z" fill="#a9cde7" stroke="#a9cde7" stroke-width="1.51"/><path d="M1218,-84L1152,36L1317,108Z" fill="#abcee7" stroke="#abcee7" stroke-width="1.51"/><path d="M1325,693L1122,823L1348,853Z" fill="#5fa1ce" stroke="#5fa1ce" stroke-width="1.51"/><path d="M1348,853L1186,956L1351,949Z" fill="#5695c9" stroke="#5695c9" stroke-width="1.51"/><path d="M1208,338L1329,499L1360,403Z" fill="#82badb" stroke="#82badb" stroke-width="1.51"/><path d="M1315,292L1208,338L1360,403Z" fill="#8bbfdd" stroke="#8bbfdd" stroke-width="1.51"/><path d="M1189,657L1122,823L1325,693Z" fill="#67a8d2" stroke="#67a8d2" stroke-width="1.51"/><path d="M1186,956L1205,1186L1305,1161Z" fill="#5388bf" stroke="#5388bf" stroke-width="1.51"/><path d="M1141,516L1189,657L1329,499Z" fill="#75b3d8" stroke="#75b3d8" stroke-width="1.51"/><path d="M1122,823L1186,956L1348,853Z" fill="#5e9bcb" stroke="#5e9bcb" stroke-width="1.51"/><path d="M1305,1161L1205,1186L1317,1252Z" fill="#4d7eb5" stroke="#4d7eb5" stroke-width="1.51"/><path d="M1208,338L1141,516L1329,499Z" fill="#82badb" stroke="#82badb" stroke-width="1.51"/><path d="M1131,-212L1218,-84L1317,-232Z" fill="#b8d6eb" stroke="#b8d6eb" stroke-width="1.51"/><path d="M1152,36L1195,227L1317,108Z" fill="#a5cae5" stroke="#a5cae5" stroke-width="1.51"/><path d="M1205,1186L1134,1324L1317,1252Z" fill="#507baf" stroke="#507baf" stroke-width="1.51"/><path d="M1195,227L1208,338L1315,292Z" fill="#94c3df" stroke="#94c3df" stroke-width="1.51"/><path d="M1059,703L1122,823L1189,657Z" fill="#6daad2" stroke="#6daad2" stroke-width="1.51"/><path d="M1152,36L1005,72L1195,227Z" fill="#accee7" stroke="#accee7" stroke-width="1.51"/><path d="M1055,1257L1134,1324L1205,1186Z" fill="#557db0" stroke="#557db0" stroke-width="1.51"/><path d="M1186,956L1057,1018L1205,1186Z" fill="#5b8ec3" stroke="#5b8ec3" stroke-width="1.51"/><path d="M1057,1018L1026,1111L1205,1186Z" fill="#5d8cc0" stroke="#5d8cc0" stroke-width="1.51"/><path d="M989,377L1141,516L1208,338Z" fill="#8ec0de" stroke="#8ec0de" stroke-width="1.51"/><path d="M1081,-18L1152,36L1218,-84Z" fill="#b2d3e9" stroke="#b2d3e9" stroke-width="1.51"/><path d="M1131,-212L1081,-18L1218,-84Z" fill="#b8d6ea" stroke="#b8d6ea" stroke-width="1.51"/><path d="M1195,227L988,282L1208,338Z" fill="#9bc7e1" stroke="#9bc7e1" stroke-width="1.51"/><path d="M988,282L989,377L1208,338Z" fill="#9ac7e0" stroke="#9ac7e0" stroke-width="1.51"/><path d="M1026,1111L1055,1257L1205,1186Z" fill="#5a85ba" stroke="#5a85ba" stroke-width="1.51"/><path d="M158,-264L247,-229L727,-242Z" fill="#e2edf8" stroke="#e2edf8" stroke-width="1.51"/><path d="M1008,560L1059,703L1141,516Z" fill="#7cb5d9" stroke="#7cb5d9" stroke-width="1.51"/><path d="M1141,516L1059,703L1189,657Z" fill="#75b1d6" stroke="#75b1d6" stroke-width="1.51"/><path d="M1005,72L988,282L1195,227Z" fill="#a7cde4" stroke="#a7cde4" stroke-width="1.51"/><path d="M1122,823L1001,870L1186,956Z" fill="#669ecd" stroke="#669ecd" stroke-width="1.51"/><path d="M1001,870L1057,1018L1186,956Z" fill="#639aca" stroke="#639aca" stroke-width="1.51"/><path d="M398,1292L243,1331L702,1322Z" fill="#7487b3" stroke="#7487b3" stroke-width="1.51"/><path d="M1038,-227L1081,-18L1131,-212Z" fill="#bedaec" stroke="#bedaec" stroke-width="1.51"/><path d="M1055,1257L843,1290L1134,1324Z" fill="#5c7ead" stroke="#5c7ead" stroke-width="1.51"/><path d="M989,377L1008,560L1141,516Z" fill="#89bddc" stroke="#89bddc" stroke-width="1.51"/><path d="M1081,-18L1005,72L1152,36Z" fill="#b3d3e9" stroke="#b3d3e9" stroke-width="1.51"/><path d="M1059,703L1001,870L1122,823Z" fill="#6da6d1" stroke="#6da6d1" stroke-width="1.51"/><path d="M1038,-227L836,-27L1081,-18Z" fill="#bfdbec" stroke="#bfdbec" stroke-width="1.51"/><path d="M836,-27L1005,72L1081,-18Z" fill="#bad7ea" stroke="#bad7ea" stroke-width="1.51"/><path d="M878,650L851,851L1001,870Z" fill="#76abd3" stroke="#76abd3" stroke-width="1.51"/><path d="M861,222L988,282L1005,72Z" fill="#aed0e6" stroke="#aed0e6" stroke-width="1.51"/><path d="M857,-244L836,-27L1038,-227Z" fill="#c8dfef" stroke="#c8dfef" stroke-width="1.51"/><path d="M1026,1111L843,1290L1055,1257Z" fill="#6086b7" stroke="#6086b7" stroke-width="1.51"/><path d="M1001,870L848,1031L1057,1018Z" fill="#6a9bca" stroke="#6a9bca" stroke-width="1.51"/><path d="M1008,560L878,650L1059,703Z" fill="#7eb5d8" stroke="#7eb5d8" stroke-width="1.51"/><path d="M878,650L1001,870L1059,703Z" fill="#75aed4" stroke="#75aed4" stroke-width="1.51"/><path d="M848,1031L1026,1111L1057,1018Z" fill="#6694c5" stroke="#6694c5" stroke-width="1.51"/><path d="M827,1107L843,1290L1026,1111Z" fill="#678cbe" stroke="#678cbe" stroke-width="1.51"/><path d="M851,851L848,1031L1001,870Z" fill="#70a1ce" stroke="#70a1ce" stroke-width="1.51"/><path d="M836,-27L858,66L1005,72Z" fill="#bcd8eb" stroke="#bcd8eb" stroke-width="1.51"/><path d="M858,66L861,222L1005,72Z" fill="#b7d4e9" stroke="#b7d4e9" stroke-width="1.51"/><path d="M989,377L842,588L1008,560Z" fill="#8cbfdd" stroke="#8cbfdd" stroke-width="1.51"/><path d="M848,1031L827,1107L1026,1111Z" fill="#6a93c5" stroke="#6a93c5" stroke-width="1.51"/><path d="M765,491L842,588L989,377Z" fill="#92c2df" stroke="#92c2df" stroke-width="1.51"/><path d="M829,350L765,491L989,377Z" fill="#9cc7e1" stroke="#9cc7e1" stroke-width="1.51"/><path d="M842,588L878,650L1008,560Z" fill="#85b9db" stroke="#85b9db" stroke-width="1.51"/><path d="M988,282L829,350L989,377Z" fill="#a0cbe2" stroke="#a0cbe2" stroke-width="1.51"/><path d="M861,222L829,350L988,282Z" fill="#a8cee4" stroke="#a8cee4" stroke-width="1.51"/><path d="M247,-229L475,-160L727,-242Z" fill="#ddeaf7" stroke="#ddeaf7" stroke-width="1.51"/><path d="M753,388L765,491L829,350Z" fill="#9fc9e2" stroke="#9fc9e2" stroke-width="1.51"/><path d="M827,1107L764,1177L843,1290Z" fill="#6a8bbd" stroke="#6a8bbd" stroke-width="1.51"/><path d="M700,988L848,1031L851,851Z" fill="#739fce" stroke="#739fce" stroke-width="1.51"/><path d="M736,670L682,795L851,851Z" fill="#80b0d7" stroke="#80b0d7" stroke-width="1.51"/><path d="M706,-103L836,-27L857,-244Z" fill="#cae0f0" stroke="#cae0f0" stroke-width="1.51"/><path d="M727,-242L706,-103L857,-244Z" fill="#d0e3f2" stroke="#d0e3f2" stroke-width="1.51"/><path d="M858,66L765,62L861,222Z" fill="#bbd6ea" stroke="#bbd6ea" stroke-width="1.51"/><path d="M765,62L683,190L861,222Z" fill="#bad6ea" stroke="#bad6ea" stroke-width="1.51"/><path d="M736,670L851,851L878,650Z" fill="#7fb2d8" stroke="#7fb2d8" stroke-width="1.51"/><path d="M842,588L736,670L878,650Z" fill="#87b9db" stroke="#87b9db" stroke-width="1.51"/><path d="M836,-27L765,62L858,66Z" fill="#c0d9ed" stroke="#c0d9ed" stroke-width="1.51"/><path d="M683,190L829,350L861,222Z" fill="#b0d2e7" stroke="#b0d2e7" stroke-width="1.51"/><path d="M683,190L753,388L829,350Z" fill="#acd0e6" stroke="#acd0e6" stroke-width="1.51"/><path d="M682,795L700,988L851,851Z" fill="#7ba7d2" stroke="#7ba7d2" stroke-width="1.51"/><path d="M700,988L827,1107L848,1031Z" fill="#7198c9" stroke="#7198c9" stroke-width="1.51"/><path d="M764,1177L702,1322L843,1290Z" fill="#6985b5" stroke="#6985b5" stroke-width="1.51"/><path d="M765,491L736,670L842,588Z" fill="#8dbdde" stroke="#8dbdde" stroke-width="1.51"/><path d="M706,-103L765,62L836,-27Z" fill="#c6ddee" stroke="#c6ddee" stroke-width="1.51"/><path d="M700,988L764,1177L827,1107Z" fill="#7194c6" stroke="#7194c6" stroke-width="1.51"/><path d="M543,247L547,366L683,190Z" fill="#b8d4e9" stroke="#b8d4e9" stroke-width="1.51"/><path d="M682,795L629,822L700,988Z" fill="#7fa9d4" stroke="#7fa9d4" stroke-width="1.51"/><path d="M629,1272L398,1292L702,1322Z" fill="#7286b4" stroke="#7286b4" stroke-width="1.51"/><path d="M475,-160L582,-161L727,-242Z" fill="#d8e6f5" stroke="#d8e6f5" stroke-width="1.51"/><path d="M683,190L547,366L753,388Z" fill="#b0d2e7" stroke="#b0d2e7" stroke-width="1.51"/><path d="M547,366L531,516L753,388Z" fill="#a7cce5" stroke="#a7cce5" stroke-width="1.51"/><path d="M700,988L621,1043L764,1177Z" fill="#7598c9" stroke="#7598c9" stroke-width="1.51"/><path d="M621,1043L626,1172L764,1177Z" fill="#7493c5" stroke="#7493c5" stroke-width="1.51"/><path d="M629,1272L702,1322L764,1177Z" fill="#6d87b7" stroke="#6d87b7" stroke-width="1.51"/><path d="M626,1172L629,1272L764,1177Z" fill="#718cbe" stroke="#718cbe" stroke-width="1.51"/><path d="M706,-103L607,41L765,62Z" fill="#c8ddef" stroke="#c8ddef" stroke-width="1.51"/><path d="M607,41L683,190L765,62Z" fill="#c3d9ed" stroke="#c3d9ed" stroke-width="1.51"/><path d="M753,388L531,516L765,491Z" fill="#9ec7e3" stroke="#9ec7e3" stroke-width="1.51"/><path d="M531,516L736,670L765,491Z" fill="#94c1e1" stroke="#94c1e1" stroke-width="1.51"/><path d="M582,-161L706,-103L727,-242Z" fill="#d3e4f3" stroke="#d3e4f3" stroke-width="1.51"/><path d="M531,516L552,692L736,670Z" fill="#92bedf" stroke="#92bedf" stroke-width="1.51"/><path d="M552,692L682,795L736,670Z" fill="#88b6da" stroke="#88b6da" stroke-width="1.51"/><path d="M140,1300L-76,1284L243,1331Z" fill="#808db7" stroke="#808db7" stroke-width="1.51"/><path d="M629,822L621,1043L700,988Z" fill="#7ca3d1" stroke="#7ca3d1" stroke-width="1.51"/><path d="M527,-114L607,41L706,-103Z" fill="#cfe1f2" stroke="#cfe1f2" stroke-width="1.51"/><path d="M582,-161L527,-114L706,-103Z" fill="#d4e4f4" stroke="#d4e4f4" stroke-width="1.51"/><path d="M552,692L629,822L682,795Z" fill="#87b3d9" stroke="#87b3d9" stroke-width="1.51"/><path d="M607,41L543,247L683,190Z" fill="#c2d9ee" stroke="#c2d9ee" stroke-width="1.51"/><path d="M531,516L479,590L552,692Z" fill="#98c1e1" stroke="#98c1e1" stroke-width="1.51"/><path d="M453,137L543,247L607,41Z" fill="#c6dbef" stroke="#c6dbef" stroke-width="1.51"/><path d="M402,895L389,939L621,1043Z" fill="#82a5d3" stroke="#82a5d3" stroke-width="1.51"/><path d="M621,1043L385,1112L626,1172Z" fill="#7b97c9" stroke="#7b97c9" stroke-width="1.51"/><path d="M402,895L621,1043L629,822Z" fill="#82a7d4" stroke="#82a7d4" stroke-width="1.51"/><path d="M552,692L402,895L629,822Z" fill="#89b2d9" stroke="#89b2d9" stroke-width="1.51"/><path d="M626,1172L398,1292L629,1272Z" fill="#748bba" stroke="#748bba" stroke-width="1.51"/><path d="M385,1112L398,1292L626,1172Z" fill="#7992c2" stroke="#7992c2" stroke-width="1.51"/><path d="M389,939L385,1112L621,1043Z" fill="#809fce" stroke="#809fce" stroke-width="1.51"/><path d="M527,-114L453,137L607,41Z" fill="#cee0f2" stroke="#cee0f2" stroke-width="1.51"/><path d="M388,-111L453,137L527,-114Z" fill="#d3e3f3" stroke="#d3e3f3" stroke-width="1.51"/><path d="M439,389L531,516L547,366Z" fill="#aacee6" stroke="#aacee6" stroke-width="1.51"/><path d="M475,-160L527,-114L582,-161Z" fill="#d8e6f5" stroke="#d8e6f5" stroke-width="1.51"/><path d="M390,268L439,389L543,247Z" fill="#b9d6ea" stroke="#b9d6ea" stroke-width="1.51"/><path d="M543,247L439,389L547,366Z" fill="#b4d4e8" stroke="#b4d4e8" stroke-width="1.51"/><path d="M479,590L419,634L552,692Z" fill="#96bfe0" stroke="#96bfe0" stroke-width="1.51"/><path d="M419,634L402,895L552,692Z" fill="#8eb9dc" stroke="#8eb9dc" stroke-width="1.51"/><path d="M453,137L390,268L543,247Z" fill="#c1d9ed" stroke="#c1d9ed" stroke-width="1.51"/><path d="M475,-160L388,-111L527,-114Z" fill="#d9e7f5" stroke="#d9e7f5" stroke-width="1.51"/><path d="M439,389L479,590L531,516Z" fill="#a2c9e4" stroke="#a2c9e4" stroke-width="1.51"/><path d="M329,-117L230,118L388,-111Z" fill="#d7e6f5" stroke="#d7e6f5" stroke-width="1.51"/><path d="M247,-229L329,-117L388,-111Z" fill="#deebf7" stroke="#deebf7" stroke-width="1.51"/><path d="M229,563L300,635L419,634Z" fill="#9dc4e3" stroke="#9dc4e3" stroke-width="1.51"/><path d="M300,635L402,895L419,634Z" fill="#93bbde" stroke="#93bbde" stroke-width="1.51"/><path d="M229,563L419,634L439,389Z" fill="#a3c9e5" stroke="#a3c9e5" stroke-width="1.51"/><path d="M388,-111L230,118L453,137Z" fill="#d1e2f3" stroke="#d1e2f3" stroke-width="1.51"/><path d="M247,-229L388,-111L475,-160Z" fill="#deeaf7" stroke="#deeaf7" stroke-width="1.51"/><path d="M439,389L419,634L479,590Z" fill="#9fc7e4" stroke="#9fc7e4" stroke-width="1.51"/><path d="M258,377L229,563L439,389Z" fill="#aed0e7" stroke="#aed0e7" stroke-width="1.51"/><path d="M286,1043L385,1112L389,939Z" fill="#84a2cf" stroke="#84a2cf" stroke-width="1.51"/><path d="M300,635L239,894L402,895Z" fill="#8fb5db" stroke="#8fb5db" stroke-width="1.51"/><path d="M230,118L322,229L453,137Z" fill="#cadef0" stroke="#cadef0" stroke-width="1.51"/><path d="M322,229L390,268L453,137Z" fill="#c4dbee" stroke="#c4dbee" stroke-width="1.51"/><path d="M385,1112L261,1178L398,1292Z" fill="#7d93c3" stroke="#7d93c3" stroke-width="1.51"/><path d="M390,268L258,377L439,389Z" fill="#b7d5e9" stroke="#b7d5e9" stroke-width="1.51"/><path d="M322,229L258,377L390,268Z" fill="#bed9ec" stroke="#bed9ec" stroke-width="1.51"/><path d="M261,1178L243,1331L398,1292Z" fill="#7b8dba" stroke="#7b8dba" stroke-width="1.51"/><path d="M239,894L389,939L402,895Z" fill="#89acd6" stroke="#89acd6" stroke-width="1.51"/><path d="M133,744L239,894L300,635Z" fill="#94bbde" stroke="#94bbde" stroke-width="1.51"/><path d="M239,894L286,1043L389,939Z" fill="#88a8d4" stroke="#88a8d4" stroke-width="1.51"/><path d="M286,1043L261,1178L385,1112Z" fill="#829bcb" stroke="#829bcb" stroke-width="1.51"/><path d="M82,-99L154,115L230,118Z" fill="#d7e6f5" stroke="#d7e6f5" stroke-width="1.51"/><path d="M154,230L258,377L322,229Z" fill="#c1dbed" stroke="#c1dbed" stroke-width="1.51"/><path d="M247,-229L82,-99L329,-117Z" fill="#e1ecf8" stroke="#e1ecf8" stroke-width="1.51"/><path d="M82,-99L230,118L329,-117Z" fill="#dae8f6" stroke="#dae8f6" stroke-width="1.51"/><path d="M230,118L154,230L322,229Z" fill="#cadff0" stroke="#cadff0" stroke-width="1.51"/><path d="M133,744L174,887L239,894Z" fill="#92b5db" stroke="#92b5db" stroke-width="1.51"/><path d="M239,894L114,939L286,1043Z" fill="#8aaad5" stroke="#8aaad5" stroke-width="1.51"/><path d="M96,1126L261,1178L286,1043Z" fill="#849dcb" stroke="#849dcb" stroke-width="1.51"/><path d="M229,563L133,744L300,635Z" fill="#9ec3e2" stroke="#9ec3e2" stroke-width="1.51"/><path d="M174,887L114,939L239,894Z" fill="#8eafd8" stroke="#8eafd8" stroke-width="1.51"/><path d="M93,527L229,563L258,377Z" fill="#accfe8" stroke="#accfe8" stroke-width="1.51"/><path d="M140,1300L243,1331L261,1178Z" fill="#7e8fbb" stroke="#7e8fbb" stroke-width="1.51"/><path d="M114,939L96,1126L286,1043Z" fill="#89a4d1" stroke="#89a4d1" stroke-width="1.51"/><path d="M158,-264L82,-99L247,-229Z" fill="#e5eff9" stroke="#e5eff9" stroke-width="1.51"/><path d="M154,230L75,345L258,377Z" fill="#c0dbec" stroke="#c0dbec" stroke-width="1.51"/><path d="M75,345L93,527L258,377Z" fill="#b6d5ea" stroke="#b6d5ea" stroke-width="1.51"/><path d="M96,1126L140,1300L261,1178Z" fill="#8396c4" stroke="#8396c4" stroke-width="1.51"/><path d="M82,-99L29,-39L154,115Z" fill="#dde9f6" stroke="#dde9f6" stroke-width="1.51"/><path d="M93,527L133,744L229,563Z" fill="#a2c7e4" stroke="#a2c7e4" stroke-width="1.51"/><path d="M154,115L154,230L230,118Z" fill="#cfe1f2" stroke="#cfe1f2" stroke-width="1.51"/><path d="M93,527L-27,642L133,744Z" fill="#a3c7e4" stroke="#a3c7e4" stroke-width="1.51"/><path d="M-56,882L114,939L133,744Z" fill="#95b6db" stroke="#95b6db" stroke-width="1.51"/><path d="M96,1126L18,1173L140,1300Z" fill="#8597c5" stroke="#8597c5" stroke-width="1.51"/><path d="M-43,-214L82,-99L158,-264Z" fill="#e8f1fa" stroke="#e8f1fa" stroke-width="1.51"/><path d="M133,744L114,939L174,887Z" fill="#92b4da" stroke="#92b4da" stroke-width="1.51"/><path d="M75,345L19,517L93,527Z" fill="#b3d3ea" stroke="#b3d3ea" stroke-width="1.51"/><path d="M-2,221L75,345L154,230Z" fill="#c8dfef" stroke="#c8dfef" stroke-width="1.51"/><path d="M29,-39L-76,136L154,115Z" fill="#dae7f5" stroke="#dae7f5" stroke-width="1.51"/><path d="M-2,221L154,230L154,115Z" fill="#cee1f1" stroke="#cee1f1" stroke-width="1.51"/><path d="M-76,136L-2,221L154,115Z" fill="#d3e4f3" stroke="#d3e4f3" stroke-width="1.51"/><path d="M-68,981L96,1126L114,939Z" fill="#8ea8d3" stroke="#8ea8d3" stroke-width="1.51"/><path d="M18,1173L-76,1284L140,1300Z" fill="#8494bf" stroke="#8494bf" stroke-width="1.51"/><path d="M-27,642L-56,882L133,744Z" fill="#9cbfe0" stroke="#9cbfe0" stroke-width="1.51"/><path d="M-26,362L19,517L75,345Z" fill="#bbd8eb" stroke="#bbd8eb" stroke-width="1.51"/><path d="M19,517L-27,642L93,527Z" fill="#aacde7" stroke="#aacde7" stroke-width="1.51"/><path d="M-68,981L18,1173L96,1126Z" fill="#8ca2cf" stroke="#8ca2cf" stroke-width="1.51"/><path d="M-56,882L-68,981L114,939Z" fill="#93b0d9" stroke="#93b0d9" stroke-width="1.51"/><path d="M-2,221L-26,362L75,345Z" fill="#c5deee" stroke="#c5deee" stroke-width="1.51"/><path d="M-43,-214L29,-39L82,-99Z" fill="#e4eff9" stroke="#e4eff9" stroke-width="1.51"/><path d="M-68,981L-131,1107L18,1173Z" fill="#8fa4d0" stroke="#8fa4d0" stroke-width="1.51"/><path d="M-122,864L-56,882L-27,642Z" fill="#9cbddf" stroke="#9cbddf" stroke-width="1.51"/><path d="M-26,362L-213,428L19,517Z" fill="#bad8ec" stroke="#bad8ec" stroke-width="1.51"/><path d="M-156,-56L-76,136L29,-39Z" fill="#e0ecf7" stroke="#e0ecf7" stroke-width="1.51"/><path d="M-43,-214L-134,-174L29,-39Z" fill="#e9f1fa" stroke="#e9f1fa" stroke-width="1.51"/><path d="M-134,-174L-156,-56L29,-39Z" fill="#e6f0f9" stroke="#e6f0f9" stroke-width="1.51"/><path d="M-224,267L-156,-56L-134,-174Z" fill="#e3eef8" stroke="#e3eef8" stroke-width="1.51"/><path d="M-131,1107L-76,1284L18,1173Z" fill="#8a9bc8" stroke="#8a9bc8" stroke-width="1.51"/><path d="M-162,577L-27,642L19,517Z" fill="#abcde7" stroke="#abcde7" stroke-width="1.51"/><path d="M-213,428L-162,577L19,517Z" fill="#b4d4ea" stroke="#b4d4ea" stroke-width="1.51"/><path d="M-138,1016L-131,1107L-68,981Z" fill="#92aad4" stroke="#92aad4" stroke-width="1.51"/><path d="M-229,697L-122,864L-27,642Z" fill="#a2c4e2" stroke="#a2c4e2" stroke-width="1.51"/><path d="M-224,267L-26,362L-2,221Z" fill="#cbe1f0" stroke="#cbe1f0" stroke-width="1.51"/><path d="M-76,136L-224,267L-2,221Z" fill="#d3e4f3" stroke="#d3e4f3" stroke-width="1.51"/><path d="M-156,-56L-186,125L-76,136Z" fill="#dfebf7" stroke="#dfebf7" stroke-width="1.51"/><path d="M-162,577L-229,697L-27,642Z" fill="#a9cbe6" stroke="#a9cbe6" stroke-width="1.51"/><path d="M-224,267L-213,428L-26,362Z" fill="#c6dfee" stroke="#c6dfee" stroke-width="1.51"/><path d="M-186,125L-224,267L-76,136Z" fill="#d8e7f5" stroke="#d8e7f5" stroke-width="1.51"/><path d="M-131,1107L-217,1255L-76,1284Z" fill="#8b9ac5" stroke="#8b9ac5" stroke-width="1.51"/><path d="M-122,864L-68,981L-56,882Z" fill="#97b4db" stroke="#97b4db" stroke-width="1.51"/><path d="M-122,864L-138,1016L-68,981Z" fill="#95b1d9" stroke="#95b1d9" stroke-width="1.51"/><path d="M-229,697L-138,1016L-122,864Z" fill="#9cbadd" stroke="#9cbadd" stroke-width="1.51"/><path d="M-138,1016L-217,1255L-131,1107Z" fill="#90a3ce" stroke="#90a3ce" stroke-width="1.51"/><path d="M-229,697L-217,1255L-138,1016Z" fill="#97afd8" stroke="#97afd8" stroke-width="1.51"/><path d="M-224,267L-186,125L-156,-56Z" fill="#deeaf7" stroke="#deeaf7" stroke-width="1.51"/><path d="M-213,428L-229,697L-162,577Z" fill="#b1d1e9" stroke="#b1d1e9" stroke-width="1.51"/><path d="M-224,267L-229,697L-213,428Z" fill="#bcd9ec" stroke="#bcd9ec" stroke-width="1.51"/></svg>